<svg width="18" height="12" viewBox="0 0 18 12" fill="none" xmlns="http://www.w3.org/2000/svg">
<path fill-rule="evenodd" clip-rule="evenodd" d="M16 9C16 9.55229 16.4477 10 17 10C17.5523 10 18 9.55229 18 9C18 4.02944 13.9706 0 9 0C4.02944 0 0 4.02944 0 9C0 9.55228 0.447716 10 1 10C1.55229 10 2 9.55228 2 9C2 5.13401 5.13401 2 9 2C12.866 2 16 5.13401 16 9ZM7 8C7 6.89543 7.89543 6 9 6C10.1046 6 11 6.89543 11 8C11 9.10457 10.1046 10 9 10C7.89543 10 7 9.10457 7 8ZM9 4C6.79086 4 5 5.79086 5 8C5 10.2091 6.79086 12 9 12C11.2091 12 13 10.2091 13 8C13 5.79086 11.2091 4 9 4Z" fill="#DADADA" fill-opacity="0.5"/>
</svg>
