<svg width="17" height="12" viewBox="0 0 17 12" fill="none" xmlns="http://www.w3.org/2000/svg">
<path fill-rule="evenodd" clip-rule="evenodd" d="M1.79169 0C2.34398 0 2.79169 0.447715 2.79169 1C2.79169 3.94552 5.17951 6.33333 8.12502 6.33333C11.0705 6.33333 13.4584 3.94552 13.4584 1C13.4584 0.447715 13.9061 0 14.4584 0C15.0106 0 15.4584 0.447715 15.4584 1C15.4584 2.47389 15.0235 3.84622 14.2752 4.99572L16.0195 7.08894C16.3731 7.51322 16.3158 8.14378 15.8915 8.49735C15.4672 8.85091 14.8367 8.79359 14.4831 8.36931L12.9466 6.52553C12.3777 7.02242 11.7313 7.43286 11.0279 7.73637L12.1861 10.0528C12.4331 10.5468 12.2329 11.1475 11.7389 11.3945C11.2449 11.6415 10.6443 11.4412 10.3973 10.9473L9.06074 8.2742C8.75434 8.31322 8.44203 8.33333 8.12502 8.33333C7.80844 8.33333 7.49655 8.31327 7.19054 8.27435L5.85409 10.9473C5.6071 11.4412 5.00643 11.6415 4.51245 11.3945C4.01847 11.1475 3.81824 10.5468 4.06523 10.0528L5.22323 7.73683C4.51976 7.43341 3.87325 7.02304 3.30418 6.52619L1.76825 8.36931C1.41468 8.79359 0.784118 8.85091 0.359841 8.49735C-0.0644361 8.14378 -0.12176 7.51322 0.231804 7.08894L1.97543 4.99659C1.22673 3.84692 0.791692 2.47426 0.791692 1C0.791692 0.447715 1.23941 0 1.79169 0Z" fill="#DADADA" fill-opacity="0.5"/>
</svg>
